<svg width="60" height="60" viewBox="0 0 60 60" fill="none" xmlns="http://www.w3.org/2000/svg">
<rect width="60" height="60" fill="#252525"/>
<path d="M24.744 46.768C22.024 46.768 19.656 46.448 17.64 45.808C15.624 45.168 14.056 44.192 12.936 42.88C11.816 41.536 11.256 39.888 11.256 37.936C11.256 36.432 11.56 35.152 12.168 34.096C12.808 33.008 13.672 32.128 14.76 31.456C15.88 30.784 17.16 30.368 18.6 30.208V29.824L24.744 28.72L30.888 29.776V30.208C32.328 30.368 33.592 30.768 34.68 31.408C35.8 32.048 36.664 32.912 37.272 34C37.88 35.088 38.184 36.4 38.184 37.936C38.184 39.888 37.624 41.536 36.504 42.88C35.416 44.192 33.864 45.168 31.848 45.808C29.832 46.448 27.464 46.768 24.744 46.768ZM24.792 41.008C25.496 41.008 26.216 40.944 26.952 40.816C27.72 40.656 28.424 40.416 29.064 40.096C29.704 39.776 30.216 39.344 30.6 38.8C31.016 38.256 31.224 37.584 31.224 36.784C31.224 35.824 30.936 35.04 30.36 34.432C29.784 33.824 29 33.376 28.008 33.088C27.016 32.8 25.928 32.656 24.744 32.656C23.528 32.656 22.44 32.8 21.48 33.088C20.52 33.376 19.752 33.824 19.176 34.432C18.6 35.008 18.312 35.776 18.312 36.736C18.312 37.504 18.504 38.176 18.888 38.752C19.304 39.296 19.832 39.744 20.472 40.096C21.112 40.416 21.8 40.656 22.536 40.816C23.304 40.944 24.056 41.008 24.792 41.008ZM24.744 27.52C25.672 27.52 26.52 27.392 27.288 27.136C28.088 26.848 28.728 26.4 29.208 25.792C29.72 25.184 29.976 24.4 29.976 23.44C29.976 22.64 29.8 21.984 29.448 21.472C29.128 20.928 28.696 20.496 28.152 20.176C27.64 19.856 27.08 19.632 26.472 19.504C25.864 19.344 25.272 19.264 24.696 19.264C23.864 19.264 23.048 19.392 22.248 19.648C21.48 19.904 20.824 20.336 20.28 20.944C19.768 21.552 19.512 22.368 19.512 23.392C19.512 24.352 19.736 25.152 20.184 25.792C20.664 26.4 21.304 26.848 22.104 27.136C22.904 27.392 23.784 27.52 24.744 27.52ZM24.744 31.744L18.6 30.304V29.632C17.224 29.408 16.072 28.992 15.144 28.384C14.216 27.776 13.512 26.976 13.032 25.984C12.584 24.992 12.36 23.856 12.36 22.576C12.36 20.528 12.888 18.848 13.944 17.536C15 16.192 16.456 15.2 18.312 14.56C20.168 13.888 22.312 13.552 24.744 13.552C27.24 13.552 29.4 13.904 31.224 14.608C33.08 15.28 34.504 16.288 35.496 17.632C36.52 18.944 37.032 20.592 37.032 22.576C37.032 24.432 36.536 25.968 35.544 27.184C34.584 28.4 33.032 29.216 30.888 29.632V30.256L24.744 31.744Z" fill="#FEFBFA"/>
<path d="M46.1149 46.624C44.6109 46.624 43.4749 46.304 42.7069 45.664C41.9709 45.024 41.6029 44.032 41.6029 42.688C41.6029 41.312 41.9709 40.304 42.7069 39.664C43.4749 39.024 44.6109 38.704 46.1149 38.704C47.6509 38.704 48.7869 39.024 49.5229 39.664C50.2909 40.304 50.6749 41.312 50.6749 42.688C50.6749 45.312 49.1549 46.624 46.1149 46.624Z" fill="#AA2E26"/>
</svg>
